HIERARCHY
ROOT Hips
{
	OFFSET -3.958830 18.904000 13.208200
	CHANNELS 6 Xposition Yposition Zposition Zrotation Yrotation Xrotation 
	JOINT LHipJoint
	{
		OFFSET 0.000000 0.000000 0.000000
		CHANNELS 3 Zrotation Yrotation Xrotation
		JOINT LeftUpLeg
		{
			OFFSET 1.800000 -1.400000 0.085000
			CHANNELS 3 Zrotation Yrotation Xrotation
			JOINT LeftLeg
			{
				OFFSET 2.215000 -6.000000 0.000000
				CHANNELS 3 Zrotation Yrotation Xrotation
				JOINT LeftFoot
				{
					OFFSET 2.500000 -6.900000 0.000000
					CHANNELS 3 Zrotation Yrotation Xrotation
					JOINT LeftToeBase
					{
						OFFSET 0.200000 -0.500000 1.950000
						CHANNELS 3 Zrotation Yrotation Xrotation
						End Site
						{
							OFFSET 0.000000 0.000000 0.000000
						}
					}
				}
			}
		}
	}
	JOINT RHipJoint
	{
		OFFSET 0.000000 0.000000 0.000000
		CHANNELS 3 Zrotation Yrotation Xrotation
		JOINT RightUpLeg
		{
			OFFSET -1.800000 -1.400000 0.085000
			CHANNELS 3 Zrotation Yrotation Xrotation
			JOINT RightLeg
			{
				OFFSET -2.215000 -6.000000 0.000000
				CHANNELS 3 Zrotation Yrotation Xrotation
				JOINT RightFoot
				{
					OFFSET -2.500000 -6.900000 0.000000
					CHANNELS 3 Zrotation Yrotation Xrotation
					JOINT RightToeBase
					{
						OFFSET -0.200000 -0.500000 1.950000
						CHANNELS 3 Zrotation Yrotation Xrotation
						End Site
						{
							OFFSET 0.000000 0.000000 0.000000
						}
					}
				}
			}
		}
	}
	JOINT LowerBack
	{
		OFFSET 0.000000 0.000000 0.000000
		CHANNELS 3 Zrotation Yrotation Xrotation
		JOINT Spine
		{
			OFFSET -0.087000 1.940000 -0.288900
			CHANNELS 3 Zrotation Yrotation Xrotation
			JOINT Spine1
			{
				OFFSET 0.000000 1.950000 0.060000
				CHANNELS 3 Zrotation Yrotation Xrotation
				JOINT Neck
				{
					OFFSET 0.000000 0.000000 0.000000
					CHANNELS 3 Zrotation Yrotation Xrotation
					JOINT Neck1
					{
						OFFSET 0.000000 1.600000 0.340000
						CHANNELS 3 Zrotation Yrotation Xrotation
						JOINT Head
						{
							OFFSET 0.000000 1.667000 -0.240000
							CHANNELS 3 Zrotation Yrotation Xrotation
							End Site
							{
								OFFSET 0.000000 0.000000 0.000000
							}
						}
					}
				}
				JOINT LeftShoulder
				{
					OFFSET 0.000000 0.000000 0.000000
					CHANNELS 3 Zrotation Yrotation Xrotation
					JOINT LeftArm
					{
						OFFSET 2.700000 1.550000 -0.730000
						CHANNELS 3 Zrotation Yrotation Xrotation
						JOINT LeftForeArm
						{
							OFFSET 5.450000 0.000000 0.000000
							CHANNELS 3 Zrotation Yrotation Xrotation
							JOINT LeftHand
							{
								OFFSET 3.450000 0.000000 0.000000
								CHANNELS 3 Zrotation Yrotation Xrotation
								JOINT LeftHandIndex1
								{
									OFFSET 0.750000 0.000000 0.000000
									CHANNELS 3 Zrotation Yrotation Xrotation
									End Site
									{
										OFFSET 0.000000 0.000000 0.000000
									}
								}
							}
						}
					}
				}
				JOINT RightShoulder
				{
					OFFSET 0.000000 0.000000 0.000000
					CHANNELS 3 Zrotation Yrotation Xrotation
					JOINT RightArm
					{
						OFFSET -2.700000 1.550000 -0.730000
						CHANNELS 3 Zrotation Yrotation Xrotation
						JOINT RightForeArm
						{
							OFFSET -5.450000 0.000000 0.000000
							CHANNELS 3 Zrotation Yrotation Xrotation
							JOINT RightHand
							{
								OFFSET -3.450000 0.000000 0.000000
								CHANNELS 3 Zrotation Yrotation Xrotation
								JOINT RightHandIndex1
								{
									OFFSET -0.750000 0.000000 0.000000
									CHANNELS 3 Zrotation Yrotation Xrotation
									End Site
									{
										OFFSET 0.000000 0.000000 0.000000
									}
								}
							}
						}
					}
				}
			}
		}
	}
}
MOTION
Frames: 9
Frame Time: 0.016667
-0.177090 17.325760 -9.009150 -2.968359 5.012408 10.620635 -14.994671 12.278706 3.120038 3.711880 -2.662963 -17.779084 -12.326762 4.652565 5.111865 -0.277581 3.506707 3.694870 0.301010 0.316840 -0.097130 18.505538 -10.362395 3.317611 -4.484421 3.007749 -18.179642 17.304862 -4.090211 3.505196 0.020722 -3.898992 3.339916 0.278870 0.693630 0.121920 -4.256599 -0.642333 -7.673602 13.809505 -0.788579 7.563962 -3.721704 0.356546 -1.707053 3.024452 0.956890 -5.167465 0.864983 0.402032 30.590258 -8.829470 4.027990 10.630150 -10.269734 -1.367600 -2.241172 -22.255559 -10.318687 -3.665269 147.148207 6.100153 22.322076 -4.007800 4.348372 -0.230400 0.639090 -0.464190 0.495060 3.931757 0.987530 2.389982 32.964834 2.370345 -7.754986 -148.606610 -0.927905 -2.561376 1.956282 -3.537078 -0.178490 0.117700 -0.231570 0.134140 
-0.173360 17.312690 -9.011810 -3.119594 5.250512 10.835364 -14.964880 12.187875 3.113526 3.810179 -2.666083 -17.865382 -12.581468 4.658686 4.794369 -0.269246 3.581591 3.682092 0.233880 0.236390 -0.175460 18.542357 -10.394309 3.327260 -4.457545 3.136970 -18.671597 17.582244 -4.174978 3.703463 0.056896 -3.944923 3.322707 0.243000 0.771700 0.151930 -4.355304 -0.415022 -7.638901 14.374070 -0.964083 7.344608 -4.056921 0.191434 -1.427426 2.835528 0.648581 -5.032163 0.636157 0.377509 29.084981 -8.392910 3.579480 11.521410 -9.561857 0.154487 -2.776368 -22.930262 -11.150483 -2.434624 146.413910 4.433979 18.004864 -4.085468 4.358854 -0.289670 0.698530 -0.535650 0.474540 3.501573 -0.216538 2.738513 33.166009 3.672814 -5.770852 -146.915545 0.996959 -10.221569 1.888781 -3.444967 -0.175290 0.116200 -0.147720 0.144150 
-0.188000 17.298380 -9.016010 -2.853228 5.044421 10.920508 -14.987776 12.102352 3.124630 3.832669 -2.626106 -17.446205 -13.079035 4.660933 4.082483 -0.291510 3.743857 3.612773 0.149400 0.095700 -0.243320 18.525859 -10.425994 3.319065 -4.619433 3.286257 -19.440752 17.771897 -4.387807 4.291199 0.103706 -3.977609 3.291985 0.169900 0.835190 0.225600 -4.292285 -0.194527 -7.598474 13.092783 -0.543081 7.335842 -3.447631 0.388141 -0.220016 2.785885 0.939160 -5.072421 1.409925 -0.315581 27.719420 -8.676340 2.779510 11.817900 -7.693364 2.460788 -3.212537 -24.574506 -12.755116 -0.111153 145.009764 1.721918 10.084014 -4.217238 4.330715 -0.329720 0.769790 -0.620220 0.394490 1.883921 -2.331379 3.289696 34.286705 5.779254 -3.381293 -142.719905 4.036608 -20.607723 1.805484 -3.254065 -0.153540 0.089090 0.009470 0.112480 
-0.187070 17.292410 -9.009810 -3.066374 6.009955 10.274622 -15.011758 12.223054 3.195354 4.046248 -2.359852 -16.419984 -13.022152 4.518410 2.832233 -0.319780 3.833292 3.540253 0.070300 -0.053880 -0.309140 18.472605 -10.487921 3.288110 -3.832388 3.266411 -19.436411 16.829397 -4.648534 5.461698 0.138812 -3.884664 3.290968 0.077050 0.827360 0.278160 -4.187434 -0.310058 -7.715579 12.900280 0.111151 8.705641 -3.387820 1.217753 -0.750471 3.088161 1.822208 -5.749409 2.771389 -1.455282 28.293852 -8.151230 1.153730 12.898070 -5.013876 5.312251 -2.007995 -26.953174 -16.825078 5.786603 141.356218 -3.136602 -5.839327 -4.265620 4.121568 -0.279150 0.755250 -0.641930 0.322720 -1.431819 -5.515209 3.041723 36.525301 5.619476 -3.111838 -137.512255 7.497147 -25.031797 1.822313 -3.109988 -0.144070 0.037600 0.140820 0.079210 
-0.230550 17.302350 -9.051190 -2.984558 4.703327 9.042681 -15.007466 12.306570 3.144143 4.810438 -2.397451 -16.956623 -13.312190 5.169998 5.626115 -0.389035 4.013235 3.413322 0.076320 -0.078710 -0.296540 18.461324 -10.549923 3.262727 -3.929127 3.036666 -18.599753 16.759039 -4.896262 5.944161 0.108633 -3.916853 3.247207 0.071940 0.799930 0.290820 -4.161069 -0.364899 -7.672939 11.879392 -0.022971 9.837067 -3.177210 1.033065 2.098639 2.673369 1.765988 -5.933488 2.656519 -0.233304 29.382867 -6.446370 1.397070 11.137510 -4.511653 5.962217 -1.086401 -24.110745 -14.442660 5.125714 137.077833 -6.906606 -16.817838 -4.318701 3.933844 -0.200180 0.718050 -0.624970 0.275060 -0.877985 -6.300191 2.762098 34.686309 7.331034 -2.067981 -132.723390 11.674559 -32.359618 1.792192 -2.916510 -0.157260 0.043960 0.202910 0.034140 
-0.258870 17.301160 -9.079420 -2.951757 4.049390 8.241594 -14.992894 12.341396 3.098203 5.174554 -2.430351 -17.507175 -13.306663 5.633612 7.727778 -0.425889 4.101775 3.314223 0.107300 -0.043550 -0.302320 18.475738 -10.608415 3.227649 -3.639038 2.886131 -18.336114 16.229760 -4.998823 6.423757 0.106452 -3.894877 3.239073 0.091860 0.765100 0.302820 -4.193898 -0.345743 -7.601859 11.311099 0.050010 10.314598 -3.225532 0.934242 4.589477 2.285665 1.848814 -5.896382 2.716567 0.145792 30.194613 -4.670120 0.823720 9.786710 -3.701944 7.120291 -0.471836 -20.918255 -11.810642 4.509972 131.010132 -13.626298 -29.335084 -4.372617 3.786018 -0.171960 0.690300 -0.612540 0.251190 -0.762047 -7.769703 2.435476 31.889738 6.710392 -1.579613 -128.761963 17.032669 -39.690587 1.781826 -2.785985 -0.135750 0.021580 0.228650 0.022060 
-0.278440 17.304420 -9.113590 -2.999504 3.691825 6.492771 -14.990031 12.595375 3.114631 5.466988 -2.306133 -17.122770 -12.849061 6.015303 9.690211 -0.447093 4.128326 3.217582 0.166950 0.010250 -0.229010 18.430927 -10.665393 3.218417 -3.179978 2.652315 -17.410819 15.349510 -5.147341 7.456556 0.048374 -3.751882 3.257647 0.089410 0.617920 0.261600 -4.129882 -0.708022 -7.746533 11.006726 -0.612086 13.222438 -2.928213 0.536109 5.693826 1.693904 0.874086 -6.656572 0.682689 1.136780 33.321050 -2.384280 0.512060 6.651700 -2.397896 7.757596 0.296686 -17.837190 -5.342689 2.465910 125.067829 -22.112847 -40.785166 -4.271969 3.608831 -0.026100 0.540780 -0.505020 0.202250 -0.906768 -7.592286 2.915287 26.924854 4.155697 -1.897553 -126.396948 23.369074 -48.822418 1.826042 -2.550165 -0.119350 0.020090 0.217510 -0.025210 
-0.286480 17.304510 -9.143910 -3.152707 3.145770 4.185902 -14.927670 12.794083 3.072038 5.627502 -1.977256 -15.728472 -12.106487 6.236874 11.022096 -0.488733 4.164432 3.133198 0.219580 0.043180 -0.143400 18.454482 -10.810288 3.180572 -2.752600 2.323617 -16.039735 14.057116 -5.355219 8.869571 -0.025778 -3.657181 3.252883 0.081670 0.480530 0.242820 -4.247468 -0.822090 -7.800648 12.058704 -1.128390 15.746135 -3.872455 0.429752 8.511516 1.301086 -0.251997 -7.801136 -1.860655 1.887532 37.421025 -0.319550 -0.085990 2.429780 -0.870674 7.367836 1.278862 -12.778919 2.217251 1.193196 120.054911 -34.274167 -55.389178 -4.169705 3.365812 0.137760 0.400070 -0.388530 0.141520 -1.755126 -6.555338 3.974182 21.686192 -0.638953 -2.650082 -126.428132 30.641131 -61.326344 1.852662 -2.300492 -0.110310 0.031430 0.222610 -0.080670 
-0.305190 17.317020 -9.185670 -3.423867 2.916407 1.831815 -14.899325 13.002217 3.027042 6.036993 -1.623828 -14.220625 -11.450464 6.414759 11.907338 -0.612793 4.319089 3.061156 0.181770 -0.042130 -0.087290 18.459767 -10.882263 3.122515 -2.130119 2.074352 -14.687315 12.761240 -5.620575 10.597671 -0.091715 -3.562251 3.263629 0.047420 0.419450 0.184760 -4.290247 -1.080655 -7.799824 12.985931 -1.850952 18.219028 -4.702243 0.136204 12.147384 1.194245 -1.589402 -9.418077 -5.165045 3.041317 41.661549 0.996840 -0.191680 -3.031570 0.907038 6.277036 2.446471 -8.873315 9.175332 0.665562 118.275779 -45.069983 -69.389837 -4.080854 2.975019 0.368060 0.282490 -0.301030 0.061780 -3.314889 -4.784261 5.628938 17.846296 -6.405365 -3.188536 -130.838534 37.744397 -79.761774 1.842693 -2.014464 -0.214620 0.161000 0.297810 -0.169540 
